<svg xmlns="http://www.w3.org/2000/svg" viewBox="0 0 572 716"><defs><style>.cls-1,.cls-2{fill:#fff;}.cls-1{fill-opacity:0.5;}.cls-1,.cls-3,.cls-4{stroke:#fff;stroke-linecap:round;stroke-linejoin:round;stroke-width:4px;}.cls-3,.cls-4{fill:none;}.cls-4{opacity:0.5;}</style></defs><title>Application@SVG</title><g id="Layer_2" data-name="Layer 2"><g id="Layer_2-2" data-name="Layer 2"><path id="_Compound_Path_" data-name="&lt;Compound Path&gt;" class="cls-1" d="M482,152.4,334,2H2V714H482V659.6h88V378.8H482Zm64,250.4V635.6H94V402.8Z"/><polygon class="cls-2" points="318.04 19.6 466.04 168.4 318.04 168.4 318.04 19.6"/><polygon class="cls-3" points="318.04 19.6 466.04 168.4 318.04 168.4 318.04 19.6"/><polygon class="cls-2" points="242.8 561.2 187.6 561.2 187.6 532.4 238 532.4 238 511.6 187.6 511.6 187.6 484.4 242 484.4 242 463.6 164.4 463.6 164.4 581.2 242.8 581.2 242.8 561.2"/><polygon class="cls-2" points="298 581.2 316.4 547.6 321.2 538.8 325.2 547.6 343.6 581.2 370.8 581.2 335.6 521.2 369.2 463.6 343.6 463.6 326 495.6 322 504.4 318 495.6 301.2 463.6 274 463.6 307.6 521.2 271.6 581.2 298 581.2"/><polygon class="cls-2" points="478 561.2 422.8 561.2 422.8 532.4 473.2 532.4 473.2 511.6 422.8 511.6 422.8 484.4 477.2 484.4 477.2 463.6 399.6 463.6 399.6 581.2 478 581.2 478 561.2"/><line class="cls-4" x1="2" y1="2" x2="236.09" y2="402.8"/><line class="cls-4" x1="130.76" y1="2" x2="2" y2="282.8"/><line class="cls-4" x1="220.09" y1="2" x2="236.09" y2="402.8"/><line class="cls-4" x1="130.76" y1="2" x2="236.09" y2="402.8"/><line class="cls-4" x1="2" y1="402.8" x2="334" y2="2"/><line class="cls-4" x1="482" y1="152.4" x2="236.09" y2="402.8"/><line class="cls-4" x1="570" y1="378.8" x2="546" y2="402.8"/><line class="cls-4" x1="482" y1="378.8" x2="546" y2="402.8"/><line class="cls-4" x1="482" y1="277.6" x2="2" y2="402.8"/><line class="cls-4" x1="220.09" y1="2" x2="2" y2="402.8"/><line class="cls-4" x1="2" y1="2" x2="345.43" y2="402.8"/><line class="cls-4" x1="334" y1="2" x2="345.43" y2="402.8"/><line class="cls-4" x1="2" y1="125.47" x2="345.43" y2="402.8"/><line class="cls-4" x1="482" y1="277.6" x2="2" y2="125.47"/><line class="cls-4" x1="334" y1="2" x2="2" y2="125.47"/><line class="cls-4" x1="220.09" y1="2" x2="2" y2="202.4"/><line class="cls-4" x1="2" y1="282.8" x2="432.6" y2="102.2"/><line class="cls-4" x1="300.09" y1="402.8" x2="432.6" y2="102.2"/><line class="cls-4" x1="149.43" y1="402.8" x2="66.38" y2="2"/><line class="cls-4" x1="275.09" y1="2" x2="482" y2="378.8"/><line class="cls-4" x1="482" y1="224.13" x2="149.43" y2="402.8"/><line class="cls-4" x1="482" y1="378.8" x2="2" y2="202.4"/><line class="cls-4" x1="66.38" y1="2" x2="482" y2="277.6"/><line class="cls-4" x1="2" y1="2" x2="482" y2="152.4"/><line class="cls-4" x1="334" y1="2" x2="482" y2="277.6"/><line class="cls-4" x1="399.6" y1="68.66" x2="149.43" y2="402.8"/><line class="cls-4" x1="220.09" y1="2" x2="2" y2="714"/><line class="cls-4" x1="2" y1="402.8" x2="94" y2="502.8"/><line class="cls-4" x1="66.38" y1="2" x2="2" y2="714"/><line class="cls-4" x1="94" y1="502.8" x2="2" y2="714"/><line class="cls-4" x1="94" y1="635.6" x2="482" y2="714"/><line class="cls-4" x1="482" y1="659.6" x2="94" y2="635.6"/><line class="cls-4" x1="80.09" y1="714" x2="94" y2="502.8"/><line class="cls-4" x1="145.43" y1="714" x2="236.09" y2="635.6"/><line class="cls-4" x1="306.76" y1="714" x2="286" y2="635.6"/><line class="cls-4" x1="147.76" y1="638.93" x2="119.05" y2="714"/><line class="cls-4" x1="94" y1="635.6" x2="145.43" y2="714"/><line class="cls-4" x1="2" y1="529.47" x2="145.43" y2="714"/><line class="cls-4" x1="2" y1="313.47" x2="80.09" y2="714"/><line class="cls-4" x1="2" y1="714" x2="425.43" y2="635.6"/><line class="cls-4" x1="256.09" y1="714" x2="286" y2="635.6"/><line class="cls-4" x1="147.76" y1="638.93" x2="256.09" y2="714"/><line class="cls-4" x1="466" y1="635.6" x2="306.76" y2="714"/><line class="cls-4" x1="482" y1="659.6" x2="494.76" y2="635.6"/><line class="cls-4" x1="546" y1="635.6" x2="570" y2="659.6"/><line class="cls-4" x1="482" y1="659.6" x2="546" y2="635.6"/><line class="cls-4" x1="570" y1="463.6" x2="546" y2="463.6"/><line class="cls-4" x1="546" y1="428.13" x2="570" y2="463.6"/><line class="cls-4" x1="546" y1="502.8" x2="570" y2="463.6"/><line class="cls-4" x1="570" y1="534.8" x2="546" y2="530.8"/><line class="cls-4" x1="546" y1="562.8" x2="570" y2="552.13"/><line class="cls-4" x1="546" y1="592.13" x2="570" y2="659.6"/><line class="cls-4" x1="570" y1="602.8" x2="546" y2="562.8"/><line class="cls-4" x1="540.09" y1="378.8" x2="570" y2="463.6"/><line class="cls-4" x1="525.43" y1="659.6" x2="546" y2="635.6"/><line class="cls-4" x1="570" y1="505.47" x2="546" y2="592.13"/><line class="cls-4" x1="399.6" y1="68.66" x2="488.38" y2="402.8"/><line class="cls-4" x1="432.6" y1="102.2" x2="399.6" y2="402.8"/><line class="cls-4" x1="164.4" y1="2" x2="399.6" y2="402.8"/><line class="cls-4" x1="482" y1="305.47" x2="399.6" y2="402.8"/><line class="cls-4" x1="2" y1="77.2" x2="236.09" y2="402.8"/><line class="cls-4" x1="164.4" y1="2" x2="2" y2="402.8"/><line class="cls-4" x1="130.76" y1="2" x2="2" y2="202.4"/><line class="cls-4" x1="275.09" y1="2" x2="2" y2="282.8"/><line class="cls-4" x1="399.6" y1="68.66" x2="2" y2="445.87"/><line class="cls-4" x1="275.09" y1="2" x2="300.09" y2="402.8"/><line class="cls-4" x1="330.76" y1="635.6" x2="339.71" y2="714"/><line class="cls-4" x1="408" y1="635.6" x2="399.6" y2="714"/><line class="cls-4" x1="482" y1="688.13" x2="286" y2="635.6"/><line class="cls-4" x1="482" y1="714" x2="466" y2="635.6"/><line class="cls-4" x1="443.99" y1="402.8" x2="353.43" y2="168.4"/><line class="cls-4" x1="200.8" y1="402.8" x2="482" y2="305.47"/><line class="cls-4" x1="94" y1="635.6" x2="2" y2="714"/><line class="cls-4" x1="54.76" y1="714" x2="2" y2="588.13"/><line class="cls-4" x1="2" y1="483.2" x2="94" y2="532.8"/><line class="cls-4" x1="2" y1="296.13" x2="94" y2="452.8"/><line class="cls-4" x1="94" y1="402.8" x2="2" y2="235.73"/><line class="cls-4" x1="34.19" y1="2" x2="94" y2="402.8"/><line class="cls-4" x1="318" y1="168.4" x2="236.09" y2="402.8"/><line class="cls-4" x1="173.71" y1="635.6" x2="183.43" y2="714"/><line class="cls-4" x1="256.09" y1="635.6" x2="183.43" y2="714"/><line class="cls-4" x1="466" y1="635.6" x2="183.43" y2="714"/><line class="cls-4" x1="399.6" y1="714" x2="330.76" y2="635.6"/><line class="cls-4" x1="482" y1="714" x2="408" y2="635.6"/><line class="cls-4" x1="2" y1="661.87" x2="183.43" y2="714"/><line class="cls-4" x1="2" y1="529.47" x2="92.71" y2="714"/><line class="cls-4" x1="92.71" y1="581.2" x2="2" y2="588.13"/><line class="cls-4" x1="94" y1="635.6" x2="183.43" y2="714"/><line class="cls-4" x1="173.71" y1="635.6" x2="54.76" y2="714"/><line class="cls-4" x1="330.76" y1="635.6" x2="271.6" y2="714"/><line class="cls-4" x1="466" y1="635.6" x2="422.76" y2="714"/><line class="cls-4" x1="570" y1="602.8" x2="546" y2="635.6"/><line class="cls-4" x1="546" y1="502.8" x2="570" y2="505.47"/><line class="cls-4" x1="570" y1="421.2" x2="546" y2="463.6"/><line class="cls-4" x1="482" y1="378.8" x2="452.76" y2="402.8"/><line class="cls-4" x1="378.55" y1="168.4" x2="378.55" y2="398.8"/><line class="cls-4" x1="94" y1="502.8" x2="2" y2="463.6"/><line class="cls-4" x1="94" y1="402.8" x2="2" y2="463.6"/><line class="cls-4" x1="94" y1="565.47" x2="2" y2="463.6"/><line class="cls-4" x1="2" y1="514.53" x2="94" y2="452.8"/><line class="cls-4" x1="92.71" y1="581.2" x2="2" y2="514.53"/><line class="cls-4" x1="94" y1="635.6" x2="2" y2="588.13"/><line class="cls-4" x1="2" y1="296.13" x2="236.09" y2="402.8"/><line class="cls-4" x1="482" y1="210.8" x2="2" y2="219.8"/><line class="cls-4" x1="178.57" y1="2" x2="173.71" y2="398.8"/><line class="cls-4" x1="252.76" y1="2" x2="119.05" y2="402.8"/><line class="cls-4" x1="2" y1="157.8" x2="399.6" y2="68.66"/><line class="cls-4" x1="2" y1="54.8" x2="482" y2="152.4"/><line class="cls-4" x1="100.76" y1="2" x2="173.71" y2="398.8"/><line class="cls-4" x1="252.76" y1="2" x2="236.09" y2="402.8"/><line class="cls-4" x1="300.09" y1="402.8" x2="252.76" y2="2"/><line class="cls-4" x1="100.76" y1="2" x2="399.6" y2="68.66"/><line class="cls-4" x1="178.57" y1="2" x2="2" y2="157.8"/><line class="cls-4" x1="34.19" y1="2" x2="2" y2="54.8"/><line class="cls-4" x1="66.38" y1="2" x2="2" y2="157.8"/><line class="cls-4" x1="100.76" y1="2" x2="2" y2="296.13"/><line class="cls-4" x1="482" y1="378.8" x2="378.55" y2="398.8"/><line class="cls-4" x1="178.57" y1="2" x2="378.55" y2="398.8"/><line class="cls-4" x1="275.09" y1="2" x2="345.43" y2="402.8"/><line class="cls-4" x1="220.09" y1="2" x2="399.6" y2="68.66"/><line class="cls-4" x1="482" y1="152.4" x2="345.43" y2="402.8"/><line class="cls-4" x1="482" y1="210.8" x2="443.99" y2="402.8"/><line class="cls-4" x1="521.22" y1="394.07" x2="495.54" y2="387.53"/><line class="cls-4" x1="2" y1="296.13" x2="482" y2="305.47"/><line class="cls-4" x1="2" y1="402.8" x2="94" y2="402.8"/></g></g></svg>