<svg xmlns="http://www.w3.org/2000/svg" viewBox="0 0 658.49 450"><defs><style>.cls-1{fill:#fff;fill-opacity:0.5;}.cls-1,.cls-2{stroke:#fff;stroke-miterlimit:10;stroke-width:4px;}.cls-2{fill:none;opacity:0.5;}</style></defs><title>Game@SVG</title><g id="Layer_2" data-name="Layer 2"><g id="Layer_2-2" data-name="Layer 2"><path class="cls-1" d="M542.31,149.83a27.14,27.14,0,0,1,2.56-32.32l-10.56-13a29.92,29.92,0,0,1-4.72,3.68l4.4,29.92-18.8,12.48v7.76a27,27,0,0,1,23.76,14,26.66,26.66,0,0,1,3.36,13.12,27.11,27.11,0,0,1-27.12,27.12,26.66,26.66,0,0,1-13.12-3.36,27.48,27.48,0,0,1-5.28-3.76,33.13,33.13,0,0,1-3.2-3.44,27,27,0,0,1-5.6-16.56A25.15,25.15,0,0,1,490.63,174v-.08l-.08-7-31,20.64-3.92,2.56-4.56,3,12.4,6.16L476,214.23l2.24,2.64,7,10.88,1.12.88,5,3.68,3,3.52.88-.64,4.16-2.88,12.72-8.8L533,209l19-13.12,3.84-35A27.21,27.21,0,0,1,542.31,149.83Zm-45.52,55.68a33.13,33.13,0,0,1-3.2-3.44,27,27,0,0,1-5.6-16.56A25.15,25.15,0,0,1,490.63,174v-.08l-.08-7-31,20.64-3.92,2.56-4.56,3,12.4,6.16L476,214.23l2.24,2.64,7,10.88,1.12.88.88-1.12,9.44-11.6,1-1.2Zm-49.12-49.28-8,.4-11.92.56-5.52.32,3.2,10.56,4.32,14.48,5,2.48,7.76-10.48,4.72-6.24,6.24-8.4A27.14,27.14,0,0,1,447.67,156.23Zm43.6,76.08-5-3.68-1.12-.88-7-10.88L476,214.23l-12.56-14.88L451,193.19l-21.28-10.64h-.08l-14.16-7-8.08-6-.32,1.84-24-11.92-7.28.32-2.32.16L357.27,183v.08l1.68,8.24,6.16,31.44a41.64,41.64,0,0,1,54.48-17.52,38.18,38.18,0,0,1,7,4.16,41.83,41.83,0,0,1,13.52,50,42.45,42.45,0,0,1-13.52,17l3.92,3.36,15.44-10.64,6.24-4.32,2.4,1,1,.48,7.2-8.88,28.72-19.84,2.72-1.84Zm38.32-124.08a26.83,26.83,0,0,1-14.4,4.16v38.24L534,138.15ZM324.31,204.87l.48-16.32v-.16l.24-6.48-8.8-2.4-.24-1.44-1.44,1-23-6.4-7,12.32L279,177l-5.2-7.36-.08-.16-.24-1.92-1.36-.4-1.6-2.24-5.68.24-7.28-2-1,2.4-9.12.48.4-5.6-36.24-10.08-1.44-3.68-1.2,3-6-1.68-5.68-1.6-1.6,1.84-14.24,16.08-4.64,5.2-8.4.48-16,.72-11.84.64h-.08l.56,2.16,7,28.64,9,37,5.12,21.2,2.56,10.48,15.84-9.2,4.4,14.16,23.2-17.52h-7.44a5.34,5.34,0,0,1-5.28-5.36V233a5.33,5.33,0,0,1,5.28-5.28h29v-29a5.28,5.28,0,0,1,5.28-5.28h20a5.34,5.34,0,0,1,5.36,5.28v29h29a5.28,5.28,0,0,1,5.28,5.28v20a5.29,5.29,0,0,1-5.28,5.36h-29v29l4,.16,18.56.8.48.64.4-.64,13,.56L305.59,257l.08-.16,1.76-2.48,15.36,1.76.48-16.24.24-8.56,1.92-2.72,12.48-17.84ZM208.07,258.31l.08,21.84,10.56-21.84ZM181.59,142.07a39.8,39.8,0,0,1-10,9.36,38.28,38.28,0,0,1-9.6,4.72,41.55,41.55,0,0,1-13.44,2.24,39.88,39.88,0,0,1-11.6-1.68c-.24,0-.4-.08-.56-.08h-.08a41.69,41.69,0,0,1-25.68-22.48l-11,5.36L107.11,173l8.48,38.16,15-39.28,9.92-.48h.08l11.84-.64,16-.72,8.4-.48,4.64-5.2,14.24-16.08Zm142.72,62.8.48-16.32v-.16l.24-6.48-8.8-2.4-.24-1.44-1.44,1-23-6.4-7,12.32L279,177l-5.2-7.36-.08-.16-.24-1.92-1.36-.4-1.6-2.24-5.68.24-7.28-2-1,2.4-9.12.48.4-5.6-36.24-10.08-1.44-3.68-1.2,3-6-1.68-5.68-1.6-1.6,1.84-14.24,16.08-4.64,5.2-8.4.48-16,.72-11.84.64.48,2.16,7,28.64,9,37,5.12,21.2,2.56,10.48,15.84-9.2,4.4,14.16,23.2-17.52h-7.44a5.34,5.34,0,0,1-5.28-5.36V233a5.33,5.33,0,0,1,5.28-5.28h29v-29a5.28,5.28,0,0,1,5.28-5.28h20a5.34,5.34,0,0,1,5.36,5.28v29h29a5.28,5.28,0,0,1,5.28,5.28v20a5.29,5.29,0,0,1-5.28,5.36h-29v29l4,.16,18.56.8.48.64.4-.64,13,.56L305.59,257l.08-.16,1.76-2.48,15.36,1.76.48-16.24.24-8.56,1.92-2.72,12.48-17.84ZM208.07,258.31l.08,21.84,10.56-21.84ZM542.31,149.83a27.14,27.14,0,0,1,2.56-32.32l-10.56-13a29.92,29.92,0,0,1-4.72,3.68l4.4,29.92-18.8,12.48v7.76a27,27,0,0,1,23.76,14,26.66,26.66,0,0,1,3.36,13.12,27.11,27.11,0,0,1-27.12,27.12,26.66,26.66,0,0,1-13.12-3.36,27.48,27.48,0,0,1-5.28-3.76,33.13,33.13,0,0,1-3.2-3.44l-10.4,7.12-6.8,4.72-.4.32,2.24,2.64,7,10.88,1.12.88,5,3.68,3,3.52.88-.64,4.16-2.88,12.72-8.8L533,209l19-13.12,3.84-35A27.21,27.21,0,0,1,542.31,149.83Zm-51,82.48-5-3.68-1.12-.88-7-10.88L476,214.23l-12.56-14.88L451,193.19l-21.28-10.64h-.08l-14.16-7-8.08-6-.32,1.84-24-11.92-7.28.32-2.32.16L357.27,183v.08l1.68,8.24,6.16,31.44a41.64,41.64,0,0,1,54.48-17.52,38.18,38.18,0,0,1,7,4.16,41.83,41.83,0,0,1,13.52,50,42.45,42.45,0,0,1-13.52,17l3.92,3.36,15.44-10.64,6.24-4.32,2.4,1,1,.48,7.2-8.88,28.72-19.84,2.72-1.84Zm-43.6-76.08-8,.4-11.92.56-5.52.32,3.2,10.56,4.32,14.48,5,2.48,7.76-10.48,4.72-6.24,6.24-8.4A27.14,27.14,0,0,1,447.67,156.23ZM181.59,142.07a39.8,39.8,0,0,1-10,9.36,38.28,38.28,0,0,1-9.6,4.72,41.55,41.55,0,0,1-13.44,2.24,39.88,39.88,0,0,1-11.6-1.68c-.24,0-.4-.08-.56-.08h-.08a41.69,41.69,0,0,1-25.68-22.48l-11,5.36L107.11,173l8.48,38.16,15-39.28,9.92-.48h.08l11.84-.64,16-.72,8.4-.48,4.64-5.2,14.24-16.08Zm348-33.84a26.83,26.83,0,0,1-14.4,4.16v38.24L534,138.15ZM324.31,204.87l.48-16.32v-.16l.24-6.48-8.8-2.4-.24-1.44-1.44,1-23-6.4-7,12.32L279,177l-5.2-7.36-.08-.16-.24-1.92-1.36-.4-1.6-2.24-5.68.24-7.28-2-1,2.4-9.12.48.4-5.6-36.24-10.08-1.44-3.68-1.2,3-6-1.68-5.68-1.6-1.6,1.84-14.24,16.08-4.64,5.2-8.4.48-16,.72-11.84.64.48,2.16,7,28.64,9,37,5.12,21.2,2.56,10.48,15.84-9.2,4.4,14.16,23.2-17.52h-7.44a5.34,5.34,0,0,1-5.28-5.36V233a5.33,5.33,0,0,1,5.28-5.28h29v-29a5.28,5.28,0,0,1,5.28-5.28h20a5.34,5.34,0,0,1,5.36,5.28v29h29a5.28,5.28,0,0,1,5.28,5.28v20a5.29,5.29,0,0,1-5.28,5.36h-29v29l4,.16,18.56.8.48.64.4-.64,13,.56L305.59,257l.08-.16,1.76-2.48,15.36,1.76.48-16.24.24-8.56,1.92-2.72,12.48-17.84ZM208.07,258.31l.08,21.84,10.56-21.84ZM542.31,149.83a27.14,27.14,0,0,1,2.56-32.32l-10.56-13a29.92,29.92,0,0,1-4.72,3.68l4.4,29.92-18.8,12.48v7.76a27,27,0,0,1,23.76,14,26.66,26.66,0,0,1,3.36,13.12,27.11,27.11,0,0,1-27.12,27.12,26.66,26.66,0,0,1-13.12-3.36,27.48,27.48,0,0,1-5.28-3.76,33.13,33.13,0,0,1-3.2-3.44l-10.4,7.12-6.8,4.72-.4.32,2.24,2.64,7,10.88,1.12.88,5,3.68,3,3.52.88-.64,4.16-2.88,12.72-8.8L533,209l19-13.12,3.84-35A27.21,27.21,0,0,1,542.31,149.83Zm-51,82.48-5-3.68-1.12-.88-7-10.88L476,214.23l-12.56-14.88L451,193.19l-21.28-10.64h-.08l-14.16-7-8.08-6-.32,1.84-24-11.92-7.28.32-2.32.16L357.27,183v.08l1.68,8.24,6.16,31.44a41.64,41.64,0,0,1,54.48-17.52,38.18,38.18,0,0,1,7,4.16,41.83,41.83,0,0,1,13.52,50,42.45,42.45,0,0,1-13.52,17l3.92,3.36,15.44-10.64,6.24-4.32,2.4,1,1,.48,7.2-8.88,28.72-19.84,2.72-1.84Zm-43.6-76.08-8,.4-11.92.56-5.52.32,3.2,10.56,4.32,14.48,5,2.48,7.76-10.48,4.72-6.24,6.24-8.4A27.14,27.14,0,0,1,447.67,156.23ZM181.59,142.07a39.8,39.8,0,0,1-10,9.36,38.28,38.28,0,0,1-9.6,4.72,41.55,41.55,0,0,1-13.44,2.24,39.88,39.88,0,0,1-11.6-1.68c-.24,0-.4-.08-.56-.08h-.08a41.69,41.69,0,0,1-25.68-22.48l-11,5.36L107.11,173l8.48,38.16,15-39.28,9.92-.48h.08l11.84-.64,16-.72,8.4-.48,4.64-5.2,14.24-16.08Zm348-33.84a26.83,26.83,0,0,1-14.4,4.16v38.24L534,138.15ZM324.31,204.87l.48-16.32v-.16l.24-6.48-8.8-2.4-.24-1.44-1.44,1-23-6.4-7,12.32L279,177l-5.2-7.36-.08-.16-.24-1.92-1.36-.4-1.6-2.24-5.68.24-7.28-2-1,2.4-9.12.48.4-5.6-36.24-10.08-1.44-3.68-1.2,3-6-1.68-5.68-1.6-1.6,1.84-14.24,16.08-4.64,5.2-8.4.48-16,.72-11.84.64.48,2.16,7,28.64,9,37,5.12,21.2,2.56,10.48,15.84-9.2,4.4,14.16,23.2-17.52h-7.44a5.34,5.34,0,0,1-5.28-5.36V233a5.33,5.33,0,0,1,5.28-5.28h29v-29a5.28,5.28,0,0,1,5.28-5.28h20a5.34,5.34,0,0,1,5.36,5.28v29h29a5.28,5.28,0,0,1,5.28,5.28v20a5.29,5.29,0,0,1-5.28,5.36h-29v29l4,.16,18.56.8.48.64.4-.64,13,.56L305.59,257l.08-.16,1.76-2.48,15.36,1.76.48-16.24.24-8.56,1.92-2.72,12.48-17.84ZM208.07,258.31l.08,21.84,10.56-21.84ZM542.31,149.83a27.14,27.14,0,0,1,2.56-32.32l-10.56-13a29.92,29.92,0,0,1-4.72,3.68l4.4,29.92-18.8,12.48v7.76a27,27,0,0,1,23.76,14,26.66,26.66,0,0,1,3.36,13.12,27.11,27.11,0,0,1-27.12,27.12,26.66,26.66,0,0,1-13.12-3.36,27.48,27.48,0,0,1-5.28-3.76,33.13,33.13,0,0,1-3.2-3.44l-10.4,7.12-6.8,4.72-.4.32,2.24,2.64,7,10.88,1.12.88,5,3.68,3,3.52.88-.64,4.16-2.88,12.72-8.8L533,209l19-13.12,3.84-35A27.21,27.21,0,0,1,542.31,149.83Zm-51,82.48-5-3.68-1.12-.88-7-10.88L476,214.23l-12.56-14.88L451,193.19l-21.28-10.64h-.08l-14.16-7-8.08-6-.32,1.84-24-11.92-7.28.32-2.32.16L357.27,183v.08l1.68,8.24,6.16,31.44a41.64,41.64,0,0,1,54.48-17.52,38.18,38.18,0,0,1,7,4.16,41.83,41.83,0,0,1,13.52,50,42.45,42.45,0,0,1-13.52,17l3.92,3.36,15.44-10.64,6.24-4.32,2.4,1,1,.48,7.2-8.88,28.72-19.84,2.72-1.84Zm-43.6-76.08-8,.4-11.92.56-5.52.32,3.2,10.56,4.32,14.48,5,2.48,7.76-10.48,4.72-6.24,6.24-8.4A27.14,27.14,0,0,1,447.67,156.23ZM181.59,142.07a39.8,39.8,0,0,1-10,9.36,38.28,38.28,0,0,1-9.6,4.72,41.55,41.55,0,0,1-13.44,2.24,39.88,39.88,0,0,1-11.6-1.68c-.24,0-.4-.08-.56-.08h-.08a41.69,41.69,0,0,1-25.68-22.48l-11,5.36L107.11,173l8.48,38.16,15-39.28,9.92-.48h.08l11.84-.64,16-.72,8.4-.48,4.64-5.2,14.24-16.08Zm348-33.84a26.83,26.83,0,0,1-14.4,4.16v38.24L534,138.15ZM324.31,204.87l.48-16.32v-.16l.24-6.48-8.8-2.4-.24-1.44-1.44,1-23-6.4-7,12.32L279,177l-5.2-7.36-.08-.16-.24-1.92-1.36-.4-1.6-2.24-5.68.24-7.28-2-1,2.4-9.12.48.4-5.6-36.24-10.08-1.44-3.68-1.2,3-6-1.68-5.68-1.6-1.6,1.84-14.24,16.08-4.64,5.2-8.4.48-16,.72-11.84.64.48,2.16,7,28.64,9,37,5.12,21.2,2.56,10.48,15.84-9.2,4.4,14.16,23.2-17.52h-7.44a5.34,5.34,0,0,1-5.28-5.36V233a5.33,5.33,0,0,1,5.28-5.28h29v-29a5.28,5.28,0,0,1,5.28-5.28h20a5.34,5.34,0,0,1,5.36,5.28v29h29a5.28,5.28,0,0,1,5.28,5.28v20a5.29,5.29,0,0,1-5.28,5.36h-29v29l4,.16,18.56.8.48.64.4-.64,13,.56L305.59,257l.08-.16,1.76-2.48,15.36,1.76.48-16.24.24-8.56,1.92-2.72,12.48-17.84Zm-105.6,53.44H208.07l.08,21.84Zm323.6-108.48a27.14,27.14,0,0,1,2.56-32.32l-10.56-13a29.92,29.92,0,0,1-4.72,3.68l4.4,29.92-18.8,12.48v7.76a27,27,0,0,1,23.76,14,26.66,26.66,0,0,1,3.36,13.12,27.11,27.11,0,0,1-27.12,27.12,26.66,26.66,0,0,1-13.12-3.36,27.48,27.48,0,0,1-5.28-3.76,33.13,33.13,0,0,1-3.2-3.44l-10.4,7.12-6.8,4.72-.4.32,2.24,2.64,7,10.88,1.12.88,5,3.68,3,3.52.88-.64,4.16-2.88,12.72-8.8L533,209l19-13.12,3.84-35A27.21,27.21,0,0,1,542.31,149.83Zm-51,82.48-5-3.68-1.12-.88-7-10.88L476,214.23l-12.56-14.88L451,193.19l-21.28-10.64h-.08l-14.16-7-8.08-6-.32,1.84-24-11.92-7.28.32-2.32.16L357.27,183v.08l1.68,8.24,6.16,31.44a41.64,41.64,0,0,1,54.48-17.52,38.18,38.18,0,0,1,7,4.16,41.83,41.83,0,0,1,13.52,50,42.45,42.45,0,0,1-13.52,17l3.92,3.36,15.44-10.64,6.24-4.32,2.4,1,1,.48,7.2-8.88,28.72-19.84,2.72-1.84Zm-43.6-76.08-8,.4-11.92.56-5.52.32,3.2,10.56,4.32,14.48,5,2.48,7.76-10.48,4.72-6.24,6.24-8.4A27.14,27.14,0,0,1,447.67,156.23ZM181.59,142.07a39.8,39.8,0,0,1-10,9.36,38.28,38.28,0,0,1-9.6,4.72,41.55,41.55,0,0,1-13.44,2.24,39.88,39.88,0,0,1-11.6-1.68c-.24,0-.4-.08-.56-.08h-.08a41.69,41.69,0,0,1-25.68-22.48l-11,5.36L107.11,173l8.48,38.16,15-39.28,9.92-.48h.08l11.84-.64,16-.72,8.4-.48,4.64-5.2,14.24-16.08Zm348-33.84a26.83,26.83,0,0,1-14.4,4.16v38.24L534,138.15ZM656,304.47a2.66,2.66,0,0,0,0-.8v-.08a3.89,3.89,0,0,0-.08-1v-.08c-.08-2.4-.24-4.72-.4-7.2V295A554.32,554.32,0,0,0,646.23,225c-2.24-11.36-4.8-23.28-7.84-36-3.12-13.12-6.48-28.4-11-45V144l-.08-.08v-.08c-2.88-10.72-6.4-21.92-10.56-33.44-3-8.24-6.32-16.64-10.16-25.12v-.08a296.64,296.64,0,0,0-25.6-45.6c-5.28-7.68-21.92-17.84-30.24-21.92C517.59,1.51,500.39-.49,482.31,4.23a166.47,166.47,0,0,0-20.4,7.2c-7.36,3-19.12,10.88-28.56,16a70.19,70.19,0,0,1-8,3.84C415.11,35,402,38,387.27,39.75h-.08c-6.72.88-13.84,1.44-21.12,1.76h-.16a296.91,296.91,0,0,1-36.64-.8c-7.76.72-15.6,1-23.2,1-5.36,0-10.64-.16-15.76-.32v-.08a238.08,238.08,0,0,1-33.92-3.92h-.16a157.35,157.35,0,0,1-23.12-6.16c-9.76-3.6-26.88-15.92-36.56-19.84-15-6.08-26.4-10.16-40.56-9.28a.11.11,0,0,0-.16,0h-.08c-12.48.72-27,5.28-48,15.52q-2,1-4.56,2.4c-8.8,4.88-21.28,13-25.68,19.52A296.7,296.7,0,0,0,47.83,95l-.08.08a360.26,360.26,0,0,0-14,40.16.29.29,0,0,0-.08.24v.16c-4.48,14.88-7.84,28.88-10.8,41.52-1,4.16-1.92,8.08-2.8,11.92-3,12.72-5.6,24.64-7.76,36v.08a.08.08,0,0,0-.08.08l.08.16a558.79,558.79,0,0,0-9,64.24A462.37,462.37,0,0,0,3.75,365V365h.08v.08C4.71,376.31,6,387.51,7.51,399a79.64,79.64,0,0,0,1.68,9.44c3.6,16.32,10.64,26.32,18.88,32.16,22.32,15.76,54.24,1.76,57.76.16a195.58,195.58,0,0,0,20.88-10.64c4.64-2.64,9-5.36,13-8.16,14.08-9.52,25.6-19.76,36-29.36v-.08h.08v-.08h.08c11.36-10.64,21.28-20.56,31.36-28.24,6.8-5.2,13.76-9.36,21.28-11.92,2.4-.8,5-1.6,7.6-2.4q2.64-.72,5.52-1.44l1-.24c7.12-1.76,14.72-3.12,22.32-4.4,12.64-2,25.68-3.28,37.52-4.16h.08c15.6-1.2,29.36-1.6,37.76-1.68,5.68-.08,9-.08,9-.08s6.48-.08,16.72.24c12.32.32,30,1.12,48.56,3.2,14.64,1.6,29.76,3.92,43.12,7.36a122.68,122.68,0,0,1,12.24,3.6A57,57,0,0,1,460.23,357h.08c9.52,5.28,18.32,13,27.84,21.76v.08l.16.08c8.24,7.76,16.88,16.32,26.88,24.88,4.08,3.52,8.4,7.12,13,10.56a231,231,0,0,0,23.28,15.6,201.83,201.83,0,0,0,21.2,10.88,73,73,0,0,0,6.88,2.64c9.92,3.44,28.4,7.84,44.24.88,9.52-4.24,18.16-12.56,23.28-27.84A88.87,88.87,0,0,0,650.95,399c1.76-13.68,3.2-26.88,4.24-40.24v-.08c0-.48.08-1,.08-1.6,0-.32.08-.64.08-1v-.48A415.49,415.49,0,0,0,656,304.47ZM534.31,104.55a29.92,29.92,0,0,1-4.72,3.68,27.18,27.18,0,0,1-25.44,1.84,27.1,27.1,0,1,1,30.16-5.52ZM186.23,98.71a40.31,40.31,0,0,1,4.08,17.84,41,41,0,0,1-8.72,25.52,39.8,39.8,0,0,1-10,9.36,38.28,38.28,0,0,1-9.6,4.72,41.55,41.55,0,0,1-13.44,2.24,39.88,39.88,0,0,1-11.6-1.68c-.24,0-.4-.08-.56-.08h-.08a41.69,41.69,0,0,1-25.68-22.48,40.52,40.52,0,0,1-3.92-17.6,41.8,41.8,0,0,1,64.4-35.12A41.08,41.08,0,0,1,186.23,98.71Zm259,18.16.08-.08A26.79,26.79,0,0,1,465,108.23,27.33,27.33,0,0,1,488.15,121l.08.08v.08a26.58,26.58,0,0,1,4,14.16,27.48,27.48,0,0,1-7.52,18.72,27.13,27.13,0,0,1-37,2.16,27.16,27.16,0,0,1-2.48-39.36Zm86.72,90a27.29,27.29,0,0,1-16.72,5.76,26.66,26.66,0,0,1-13.12-3.36,27.48,27.48,0,0,1-5.28-3.76,33.13,33.13,0,0,1-3.2-3.44,27,27,0,0,1-5.6-16.56A25.15,25.15,0,0,1,490.63,174v-.08a27.18,27.18,0,0,1,48.32-1.52,26.66,26.66,0,0,1,3.36,13.12A27,27,0,0,1,531.91,206.87ZM401.67,284.79a41.37,41.37,0,0,1-21.84-6.16v-.08a33,33,0,0,1-4.72-3.28,42.29,42.29,0,0,1-11.2-14.48,41.75,41.75,0,0,1,37.76-59.6,40.91,40.91,0,0,1,17.92,4.08,38.18,38.18,0,0,1,7,4.16,41.83,41.83,0,0,1,13.52,50,42.45,42.45,0,0,1-13.52,17,28.72,28.72,0,0,1-6.32,3.92A40.43,40.43,0,0,1,401.67,284.79Zm175.44-125a27,27,0,0,1-21.2,1,27.21,27.21,0,0,1-13.6-11,27.16,27.16,0,0,1,23-41.6,25.77,25.77,0,0,1,8.64,1.44,27.13,27.13,0,0,1,3.12,50.16ZM229.67,287.27v-29h-29a5.34,5.34,0,0,1-5.28-5.36V233a5.33,5.33,0,0,1,5.28-5.28h29v-29a5.28,5.28,0,0,1,5.28-5.28h20a5.34,5.34,0,0,1,5.36,5.28v29h29a5.28,5.28,0,0,1,5.28,5.28v20a5.29,5.29,0,0,1-5.28,5.36h-29v29a5.34,5.34,0,0,1-5.36,5.28h-20A5.28,5.28,0,0,1,229.67,287.27Zm299.92-179a26.83,26.83,0,0,1-14.4,4.16v38.24L534,138.15Zm-348,33.84a39.8,39.8,0,0,1-10,9.36,38.28,38.28,0,0,1-9.6,4.72,41.55,41.55,0,0,1-13.44,2.24,39.88,39.88,0,0,1-11.6-1.68c-.24,0-.4-.08-.56-.08h-.08a41.69,41.69,0,0,1-25.68-22.48l-11,5.36L107.11,173l8.48,38.16,15-39.28,9.92-.48h.08l11.84-.64,16-.72,8.4-.48,4.64-5.2,14.24-16.08Zm266.08,14.16-8,.4-11.92.56-5.52.32,3.2,10.56,4.32,14.48,5,2.48,7.76-10.48,4.72-6.24,6.24-8.4A27.14,27.14,0,0,1,447.67,156.23Zm43.6,76.08-5-3.68-1.12-.88-7-10.88L476,214.23l-12.56-14.88L451,193.19l-21.28-10.64h-.08l-14.16-7-8.08-6-.32,1.84-24-11.92-7.28.32-2.32.16L357.27,183v.08l1.68,8.24,6.16,31.44a41.64,41.64,0,0,1,54.48-17.52,38.18,38.18,0,0,1,7,4.16,41.83,41.83,0,0,1,13.52,50,42.45,42.45,0,0,1-13.52,17l3.92,3.36,15.44-10.64,6.24-4.32,2.4,1,1,.48,7.2-8.88,28.72-19.84,2.72-1.84Zm51-82.48a27.14,27.14,0,0,1,2.56-32.32l-10.56-13a29.92,29.92,0,0,1-4.72,3.68l4.4,29.92-18.8,12.48v7.76a27,27,0,0,1,23.76,14,26.66,26.66,0,0,1,3.36,13.12,27.11,27.11,0,0,1-27.12,27.12,26.66,26.66,0,0,1-13.12-3.36,27.48,27.48,0,0,1-5.28-3.76,33.13,33.13,0,0,1-3.2-3.44l-10.4,7.12-6.8,4.72-.4.32,2.24,2.64,7,10.88,1.12.88,5,3.68,3,3.52.88-.64,4.16-2.88,12.72-8.8L533,209l19-13.12,3.84-35A27.21,27.21,0,0,1,542.31,149.83ZM208.07,258.31l.08,21.84,10.56-21.84Zm116.24-53.44.48-16.32v-.16l.24-6.48-8.8-2.4-.24-1.44-1.44,1-23-6.4-7,12.32L279,177l-5.2-7.36-.08-.16-.24-1.92-1.36-.4-1.6-2.24-5.68.24-7.28-2-1,2.4-9.12.48.4-5.6-36.24-10.08-1.44-3.68-1.2,3-6-1.68-5.68-1.6-1.6,1.84-14.24,16.08-4.64,5.2-8.4.48-16,.72-11.84.64.48,2.16,7,28.64,9,37,5.12,21.2,2.56,10.48,15.84-9.2,4.4,14.16,23.2-17.52h-7.44a5.34,5.34,0,0,1-5.28-5.36V233a5.33,5.33,0,0,1,5.28-5.28h29v-29a5.28,5.28,0,0,1,5.28-5.28h20a5.34,5.34,0,0,1,5.36,5.28v29h29a5.28,5.28,0,0,1,5.28,5.28v20a5.29,5.29,0,0,1-5.28,5.36h-29v29l4,.16,18.56.8.48.64.4-.64,13,.56L305.59,257l.08-.16,1.76-2.48,15.36,1.76.48-16.24.24-8.56,1.92-2.72,12.48-17.84Zm205.28-96.64a26.83,26.83,0,0,1-14.4,4.16v38.24L534,138.15Zm-348,33.84a39.8,39.8,0,0,1-10,9.36,38.28,38.28,0,0,1-9.6,4.72,41.55,41.55,0,0,1-13.44,2.24,39.88,39.88,0,0,1-11.6-1.68c-.24,0-.4-.08-.56-.08h-.08a41.69,41.69,0,0,1-25.68-22.48l-11,5.36L107.11,173l8.48,38.16,15-39.28,9.92-.48h.08l11.84-.64,16-.72,8.4-.48,4.64-5.2,14.24-16.08Zm266.08,14.16-8,.4-11.92.56-5.52.32,3.2,10.56,4.32,14.48,5,2.48,7.76-10.48,4.72-6.24,6.24-8.4A27.14,27.14,0,0,1,447.67,156.23Zm43.6,76.08-5-3.68-1.12-.88-7-10.88L476,214.23l-12.56-14.88L451,193.19l-21.28-10.64h-.08l-14.16-7-8.08-6-.32,1.84-24-11.92-7.28.32-2.32.16L357.27,183v.08l1.68,8.24,6.16,31.44a41.64,41.64,0,0,1,54.48-17.52,38.18,38.18,0,0,1,7,4.16,41.83,41.83,0,0,1,13.52,50,42.45,42.45,0,0,1-13.52,17l3.92,3.36,15.44-10.64,6.24-4.32,2.4,1,1,.48,7.2-8.88,28.72-19.84,2.72-1.84Zm51-82.48a27.14,27.14,0,0,1,2.56-32.32l-10.56-13a29.92,29.92,0,0,1-4.72,3.68l4.4,29.92-18.8,12.48v7.76a27,27,0,0,1,23.76,14,26.66,26.66,0,0,1,3.36,13.12,27.11,27.11,0,0,1-27.12,27.12,26.66,26.66,0,0,1-13.12-3.36,27.48,27.48,0,0,1-5.28-3.76,33.13,33.13,0,0,1-3.2-3.44l-10.4,7.12-6.8,4.72-.4.32,2.24,2.64,7,10.88,1.12.88,5,3.68,3,3.52.88-.64,4.16-2.88,12.72-8.8L533,209l19-13.12,3.84-35A27.21,27.21,0,0,1,542.31,149.83ZM208.07,258.31l.08,21.84,10.56-21.84Zm116.24-53.44.48-16.32v-.16l.24-6.48-8.8-2.4-.24-1.44-1.44,1-23-6.4-7,12.32L279,177l-5.2-7.36-.08-.16-.24-1.92-1.36-.4-1.6-2.24-5.68.24-7.28-2-1,2.4-9.12.48.4-5.6-36.24-10.08-1.44-3.68-1.2,3-6-1.68-5.68-1.6-1.6,1.84-14.24,16.08-4.64,5.2-8.4.48-16,.72-11.84.64.48,2.16,7,28.64,9,37,5.12,21.2,2.56,10.48,15.84-9.2,4.4,14.16,23.2-17.52h-7.44a5.34,5.34,0,0,1-5.28-5.36V233a5.33,5.33,0,0,1,5.28-5.28h29v-29a5.28,5.28,0,0,1,5.28-5.28h20a5.34,5.34,0,0,1,5.36,5.28v29h29a5.28,5.28,0,0,1,5.28,5.28v20a5.29,5.29,0,0,1-5.28,5.36h-29v29l4,.16,18.56.8.48.64.4-.64,13,.56L305.59,257l.08-.16,1.76-2.48,15.36,1.76.48-16.24.24-8.56,1.92-2.72,12.48-17.84Zm205.28-96.64a26.83,26.83,0,0,1-14.4,4.16v38.24L534,138.15Zm-348,33.84a39.8,39.8,0,0,1-10,9.36,38.28,38.28,0,0,1-9.6,4.72,41.55,41.55,0,0,1-13.44,2.24,39.88,39.88,0,0,1-11.6-1.68c-.24,0-.4-.08-.56-.08h-.08a41.69,41.69,0,0,1-25.68-22.48l-11,5.36L107.11,173l8.48,38.16,15-39.28,9.92-.48h.08l11.84-.64,16-.72,8.4-.48,4.64-5.2,14.24-16.08Zm266.08,14.16-8,.4-11.92.56-5.52.32,3.2,10.56,4.32,14.48,5,2.48,7.76-10.48,4.72-6.24,6.24-8.4A27.14,27.14,0,0,1,447.67,156.23Zm43.6,76.08-5-3.68-1.12-.88-7-10.88L476,214.23l-12.56-14.88L451,193.19l-21.28-10.64h-.08l-14.16-7-8.08-6-.32,1.84-24-11.92-7.28.32-2.32.16L357.27,183v.08l1.68,8.24,6.16,31.44a41.64,41.64,0,0,1,54.48-17.52,38.18,38.18,0,0,1,7,4.16,41.83,41.83,0,0,1,13.52,50,42.45,42.45,0,0,1-13.52,17l3.92,3.36,15.44-10.64,6.24-4.32,2.4,1,1,.48,7.2-8.88,28.72-19.84,2.72-1.84Zm51-82.48a27.14,27.14,0,0,1,2.56-32.32l-10.56-13a29.92,29.92,0,0,1-4.72,3.68l4.4,29.92-18.8,12.48v7.76a27,27,0,0,1,23.76,14,26.66,26.66,0,0,1,3.36,13.12,27.11,27.11,0,0,1-27.12,27.12,26.66,26.66,0,0,1-13.12-3.36,27.48,27.48,0,0,1-5.28-3.76,33.13,33.13,0,0,1-3.2-3.44l-10.4,7.12-6.8,4.72-.4.32,2.24,2.64,7,10.88,1.12.88,5,3.68,3,3.52.88-.64,4.16-2.88,12.72-8.8L533,209l19-13.12,3.84-35A27.21,27.21,0,0,1,542.31,149.83ZM208.07,258.31l.08,21.84,10.56-21.84Zm116.24-53.44.48-16.32v-.16l.24-6.48-8.8-2.4-.24-1.44-1.44,1-23-6.4-7,12.32L279,177l-5.2-7.36-.08-.16-.24-1.92-1.36-.4-1.6-2.24-5.68.24-7.28-2-1,2.4-9.12.48.4-5.6-36.24-10.08-1.44-3.68-1.2,3-6-1.68-5.68-1.6-1.6,1.84-14.24,16.08-4.64,5.2-8.4.48-16,.72-11.84.64.48,2.16,7,28.64,9,37,5.12,21.2,2.56,10.48,15.84-9.2,4.4,14.16,23.2-17.52h-7.44a5.34,5.34,0,0,1-5.28-5.36V233a5.33,5.33,0,0,1,5.28-5.28h29v-29a5.28,5.28,0,0,1,5.28-5.28h20a5.34,5.34,0,0,1,5.36,5.28v29h29a5.28,5.28,0,0,1,5.28,5.28v20a5.29,5.29,0,0,1-5.28,5.36h-29v29l4,.16,18.56.8.48.64.4-.64,13,.56L305.59,257l.08-.16,1.76-2.48,15.36,1.76.48-16.24.24-8.56,1.92-2.72,12.48-17.84Zm205.28-96.64a26.83,26.83,0,0,1-14.4,4.16v38.24L534,138.15Zm-348,33.84a39.8,39.8,0,0,1-10,9.36,38.28,38.28,0,0,1-9.6,4.72,41.55,41.55,0,0,1-13.44,2.24,39.88,39.88,0,0,1-11.6-1.68c-.24,0-.4-.08-.56-.08h-.08a41.69,41.69,0,0,1-25.68-22.48l-11,5.36L107.11,173l8.48,38.16,15-39.28,9.92-.48h.08l11.84-.64,16-.72,8.4-.48,4.64-5.2,14.24-16.08Zm266.08,14.16-8,.4-11.92.56-5.52.32,3.2,10.56,4.32,14.48,5,2.48,7.76-10.48,4.72-6.24,6.24-8.4A27.14,27.14,0,0,1,447.67,156.23Zm43.6,76.08-5-3.68-1.12-.88-7-10.88L476,214.23l-12.56-14.88L451,193.19l-21.28-10.64h-.08l-14.16-7-8.08-6-.32,1.84-24-11.92-7.28.32-2.32.16L357.27,183v.08l1.68,8.24,6.16,31.44a41.64,41.64,0,0,1,54.48-17.52,38.18,38.18,0,0,1,7,4.16,41.83,41.83,0,0,1,13.52,50,42.45,42.45,0,0,1-13.52,17l3.92,3.36,15.44-10.64,6.24-4.32,2.4,1,1,.48,7.2-8.88,28.72-19.84,2.72-1.84Zm51-82.48a27.14,27.14,0,0,1,2.56-32.32l-10.56-13a29.92,29.92,0,0,1-4.72,3.68l4.4,29.92-18.8,12.48v7.76a27,27,0,0,1,23.76,14,26.66,26.66,0,0,1,3.36,13.12,27.11,27.11,0,0,1-27.12,27.12,26.66,26.66,0,0,1-13.12-3.36,27.48,27.48,0,0,1-5.28-3.76,33.13,33.13,0,0,1-3.2-3.44l-10.4,7.12-6.8,4.72-.4.32,2.24,2.64,7,10.88,1.12.88,5,3.68,3,3.52.88-.64,4.16-2.88,12.72-8.8L533,209l19-13.12,3.84-35A27.21,27.21,0,0,1,542.31,149.83ZM208.07,258.31l.08,21.84,10.56-21.84Zm116.24-53.44.48-16.32v-.16l.24-6.48-8.8-2.4-.24-1.44-1.44,1-23-6.4-7,12.32L279,177l-5.2-7.36-.08-.16-.24-1.92-1.36-.4-1.6-2.24-5.68.24-7.28-2-1,2.4-9.12.48.4-5.6-36.24-10.08-1.44-3.68-1.2,3-6-1.68-5.68-1.6-1.6,1.84-14.24,16.08-4.64,5.2-8.4.48-16,.72-11.84.64.48,2.16,7,28.64,9,37,5.12,21.2,2.56,10.48,15.84-9.2,4.4,14.16,23.2-17.52h-7.44a5.34,5.34,0,0,1-5.28-5.36V233a5.33,5.33,0,0,1,5.28-5.28h29v-29a5.28,5.28,0,0,1,5.28-5.28h20a5.34,5.34,0,0,1,5.36,5.28v29h29a5.28,5.28,0,0,1,5.28,5.28v20a5.29,5.29,0,0,1-5.28,5.36h-29v29l4,.16,18.56.8.48.64.4-.64,13,.56L305.59,257l.08-.16,1.76-2.48,15.36,1.76.48-16.24.24-8.56,1.92-2.72,12.48-17.84Z"/><line class="cls-2" x1="47.75" y1="94.95" x2="106.72" y2="116.56"/><line class="cls-2" x1="181.55" y1="142.09" x2="365.07" y2="222.77"/><line class="cls-2" x1="440.07" y1="259.45" x2="656.5" y2="356.1"/><line class="cls-2" x1="77.47" y1="39.62" x2="116.51" y2="89.7"/><line class="cls-2" x1="171.55" y1="151.43" x2="229.63" y2="227.66"/><line class="cls-2" x1="260.28" y1="258.28" x2="320.34" y2="337.9"/><line class="cls-2" x1="77.47" y1="39.62" x2="155.79" y2="392.45"/><line class="cls-2" x1="47.75" y1="94.95" x2="256.42" y2="37.45"/><line class="cls-2" x1="155.9" y1="2.01" x2="3.31" y2="289.59"/><line class="cls-2" x1="103.21" y1="20.07" x2="125.6" y2="81.62"/><line class="cls-2" x1="148.52" y1="158.37" x2="208.56" y2="352.22"/><line class="cls-2" x1="22.83" y1="177.1" x2="447.65" y2="156.24"/><line class="cls-2" x1="484.72" y1="154.03" x2="542.34" y2="149.84"/><line class="cls-2" x1="589.72" y1="147.27" x2="627.32" y2="144.01"/><line class="cls-2" x1="22.83" y1="177.1" x2="106.72" y2="430.09"/><line class="cls-2" x1="3.76" y1="365.07" x2="155.79" y2="392.45"/><line class="cls-2" x1="85.82" y1="440.74" x2="47.75" y2="94.95"/><line class="cls-2" x1="22.83" y1="177.1" x2="110.6" y2="134.17"/><line class="cls-2" x1="186.23" y1="98.7" x2="329.23" y2="40.68"/><line class="cls-2" x1="256.42" y1="37.45" x2="85.82" y2="440.74"/><line class="cls-2" x1="77.47" y1="39.62" x2="256.42" y2="37.45"/><line class="cls-2" x1="155.9" y1="2.01" x2="229.63" y2="198.66"/><line class="cls-2" x1="260.28" y1="276.1" x2="282.43" y2="339.57"/><line class="cls-2" x1="256.42" y1="37.45" x2="245.51" y2="193.36"/><line class="cls-2" x1="244.96" y1="292.57" x2="244.96" y2="343.74"/><line class="cls-2" x1="3.31" y1="289.59" x2="229.63" y2="287.28"/><line class="cls-2" x1="260.28" y1="287.28" x2="656.5" y2="303.6"/><line class="cls-2" x1="3.31" y1="289.59" x2="85.82" y2="440.74"/><line class="cls-2" x1="119.72" y1="421.91" x2="33.61" y2="135.38"/><line class="cls-2" x1="3.76" y1="365.07" x2="195.34" y2="252.95"/><line class="cls-2" x1="260.28" y1="216.04" x2="550.69" y2="17.67"/><line class="cls-2" x1="329.23" y1="40.68" x2="260.28" y2="227.66"/><line class="cls-2" x1="234.96" y1="292.57" x2="216.18" y2="349.85"/><line class="cls-2" x1="12.25" y1="225" x2="195.34" y2="242.97"/><line class="cls-2" x1="294.58" y1="252.95" x2="363.92" y2="260.81"/><line class="cls-2" x1="435.2" y1="267.85" x2="656.5" y2="295.44"/><line class="cls-2" x1="12.25" y1="225" x2="155.79" y2="392.45"/><line class="cls-2" x1="3.76" y1="365.07" x2="290.31" y2="41.34"/><line class="cls-2" x1="345.99" y1="338.06" x2="290.31" y2="41.34"/><line class="cls-2" x1="28.08" y1="440.53" x2="77.47" y2="39.62"/><line class="cls-2" x1="3.76" y1="365.07" x2="85.82" y2="440.74"/><line class="cls-2" x1="28.08" y1="440.53" x2="155.79" y2="392.45"/><line class="cls-2" x1="103.21" y1="20.07" x2="60.08" y2="447.63"/><line class="cls-2" x1="12.25" y1="225" x2="60.08" y2="447.63"/><line class="cls-2" x1="218.73" y1="258.28" x2="155.79" y2="392.45"/><line class="cls-2" x1="245.51" y1="193.36" x2="306.06" y2="41.69"/><line class="cls-2" x1="155.9" y1="2.01" x2="394.53" y2="341.25"/><line class="cls-2" x1="196.56" y1="11.43" x2="206.73" y2="227.66"/><line class="cls-2" x1="208.06" y1="258.28" x2="208.56" y2="352.22"/><line class="cls-2" x1="187.26" y1="364.19" x2="33.61" y2="135.38"/><line class="cls-2" x1="196.56" y1="11.43" x2="171.12" y2="81.45"/><line class="cls-2" x1="136.73" y1="155.64" x2="28.08" y2="440.53"/><line class="cls-2" x1="103.21" y1="20.07" x2="656.5" y2="295.44"/><line class="cls-2" x1="196.56" y1="11.43" x2="655.25" y2="355.16"/><line class="cls-2" x1="187.26" y1="364.19" x2="136.73" y2="155.64"/><line class="cls-2" x1="646.21" y1="225" x2="208.56" y2="352.22"/><line class="cls-2" x1="365.98" y1="41.44" x2="260.28" y2="227.66"/><line class="cls-2" x1="229.63" y1="276.1" x2="187.26" y2="364.19"/><line class="cls-2" x1="9.16" y1="408.36" x2="208.06" y2="258.28"/><line class="cls-2" x1="282.43" y1="339.57" x2="365.98" y2="41.44"/><line class="cls-2" x1="329.23" y1="40.68" x2="320.34" y2="337.9"/><line class="cls-2" x1="208.56" y1="352.22" x2="359.88" y2="249.79"/><line class="cls-2" x1="426.53" y1="209.41" x2="538.13" y2="135.36"/><line class="cls-2" x1="573.98" y1="109.65" x2="606.52" y2="85.23"/><line class="cls-2" x1="329.23" y1="40.68" x2="365.07" y2="222.77"/><line class="cls-2" x1="379.85" y1="278.58" x2="394.53" y2="341.25"/><line class="cls-2" x1="345.99" y1="338.06" x2="627.32" y2="144.01"/><line class="cls-2" x1="33.61" y1="135.38" x2="155.9" y2="2.01"/><line class="cls-2" x1="329.23" y1="40.68" x2="647.07" y2="416.49"/><line class="cls-2" x1="460.25" y1="356.95" x2="646.21" y2="225"/><line class="cls-2" x1="606.52" y1="85.23" x2="551.41" y2="429.93"/><line class="cls-2" x1="365.98" y1="41.44" x2="345.99" y2="338.06"/><line class="cls-2" x1="387.19" y1="39.74" x2="488.15" y2="378.81"/><line class="cls-2" x1="482.33" y1="4.21" x2="244.96" y2="343.74"/><line class="cls-2" x1="365.98" y1="41.44" x2="623.73" y2="444.31"/><line class="cls-2" x1="488.15" y1="378.81" x2="627.32" y2="144.01"/><line class="cls-2" x1="394.53" y1="341.25" x2="656.5" y2="303.6"/><line class="cls-2" x1="482.33" y1="4.21" x2="627.32" y2="144.01"/><line class="cls-2" x1="387.19" y1="39.74" x2="492.19" y2="68.69"/><line class="cls-2" x1="542.34" y1="85.21" x2="616.69" y2="110.35"/><line class="cls-2" x1="433.35" y1="27.45" x2="401.68" y2="201.18"/><line class="cls-2" x1="379.85" y1="207.36" x2="365.98" y2="41.44"/><line class="cls-2" x1="394.4" y1="201.18" x2="181.55" y2="142.09"/><line class="cls-2" x1="281.4" y1="227.66" x2="256.42" y2="37.45"/><line class="cls-2" x1="195.34" y1="228.58" x2="162" y2="156.11"/><line class="cls-2" x1="551.41" y1="429.93" x2="655.33" y2="356.92"/><line class="cls-2" x1="623.73" y1="444.31" x2="488.15" y2="378.81"/><line class="cls-2" x1="394.53" y1="341.25" x2="502.05" y2="209.27"/><line class="cls-2" x1="420.26" y1="280.35" x2="437.67" y2="348.61"/><line class="cls-2" x1="426.53" y1="276.5" x2="623.73" y2="444.31"/><line class="cls-2" x1="647.07" y1="416.49" x2="488.15" y2="378.81"/><line class="cls-2" x1="655.21" y1="358.6" x2="623.73" y2="444.31"/><line class="cls-2" x1="531.4" y1="206.1" x2="647.07" y2="416.49"/><line class="cls-2" x1="565.31" y1="162.54" x2="551.41" y2="429.93"/><line class="cls-2" x1="419.58" y1="205.26" x2="453.46" y2="159.92"/><line class="cls-2" x1="443.45" y1="236.6" x2="494.85" y2="201.18"/><line class="cls-2" x1="375.14" y1="275.26" x2="282.43" y2="339.57"/><line class="cls-2" x1="504.18" y1="110.06" x2="488.15" y2="121.16"/><line class="cls-2" x1="515.16" y1="112.39" x2="515.16" y2="158.37"/><line class="cls-2" x1="529.61" y1="108.22" x2="538.95" y2="172.38"/><line class="cls-2" x1="525.13" y1="58.07" x2="518.33" y2="4.85"/><line class="cls-2" x1="482.33" y1="4.21" x2="488.15" y2="121.16"/><line class="cls-2" x1="490.17" y1="145.64" x2="490.61" y2="173.98"/><line class="cls-2" x1="496.78" y1="205.47" x2="515.18" y2="403.75"/><line class="cls-2" x1="590.56" y1="396.79" x2="515.91" y2="261.41"/><line class="cls-2" x1="638.43" y1="189.02" x2="437.67" y2="348.61"/><line class="cls-2" x1="550.69" y1="17.67" x2="627.32" y2="144.01"/><line class="cls-2" x1="565.31" y1="108.22" x2="550.69" y2="17.67"/><line class="cls-2" x1="433.35" y1="27.45" x2="589.23" y2="54.22"/><line class="cls-2" x1="461.89" y1="11.43" x2="465.01" y2="108.22"/><line class="cls-2" x1="445.18" y1="116.85" x2="387.19" y2="39.74"/><line class="cls-2" x1="437.87" y1="135.36" x2="365.98" y2="41.44"/><line class="cls-2" x1="518.33" y1="4.85" x2="445.18" y2="116.85"/><line class="cls-2" x1="577.13" y1="159.81" x2="656.5" y2="303.6"/><line class="cls-2" x1="638.43" y1="189.02" x2="579.52" y2="443.44"/><line class="cls-2" x1="656.5" y1="303.6" x2="579.52" y2="443.44"/><line class="cls-2" x1="638.43" y1="189.02" x2="589.72" y2="147.27"/><line class="cls-2" x1="534.28" y1="104.52" x2="544.86" y2="117.53"/><line class="cls-2" x1="555.94" y1="160.84" x2="528.14" y2="414.29"/><line class="cls-2" x1="460.25" y1="356.95" x2="656.5" y2="356.1"/></g></g></svg>