<svg xmlns="http://www.w3.org/2000/svg" viewBox="0 0 647.67 684.47"><defs><style>.cls-1,.cls-3{fill:#fff;}.cls-1,.cls-2,.cls-3{stroke:#fff;stroke-miterlimit:10;stroke-width:4px;}.cls-2{fill:none;opacity:0.5;}.cls-3{fill-opacity:0.5;}</style></defs><title>Network@SVG</title><g id="Layer_2" data-name="Layer 2"><g id="Layer_2-2" data-name="Layer 2"><circle class="cls-1" cx="376.21" cy="451.62" r="37.4"/><line class="cls-2" x1="364.53" y1="416.09" x2="382.92" y2="488.42"/><line class="cls-2" x1="398.21" y1="421.38" x2="352.56" y2="480.59"/><line class="cls-2" x1="373.73" y1="414.31" x2="408.3" y2="470.83"/><line class="cls-2" x1="409.67" y1="434.9" x2="343.72" y2="433.1"/><line class="cls-2" x1="401.63" y1="479.05" x2="345.13" y2="430.82"/><line class="cls-2" x1="386" y1="415.52" x2="391.01" y2="485.98"/><line class="cls-2" x1="338.91" y1="454.39" x2="413.61" y2="453.63"/><line class="cls-2" x1="352.56" y1="480.59" x2="345.13" y2="430.82"/><line class="cls-2" x1="413.61" y1="453.63" x2="352.56" y2="480.59"/><line class="cls-2" x1="409.67" y1="434.9" x2="364.53" y2="416.09"/><line class="cls-2" x1="398.21" y1="421.38" x2="408.3" y2="470.83"/><line class="cls-2" x1="391.01" y1="485.98" x2="352.56" y2="480.59"/><circle class="cls-1" cx="315.7" cy="153.52" r="37.4"/><line class="cls-2" x1="283.62" y1="134.29" x2="352.26" y2="145.6"/><line class="cls-2" x1="339" y1="124.27" x2="280.55" y2="166.31"/><line class="cls-2" x1="313.48" y1="116.19" x2="325.58" y2="189.6"/><line class="cls-2" x1="278.3" y1="151.38" x2="325.58" y2="189.6"/><line class="cls-2" x1="300.6" y1="119.3" x2="293.95" y2="183.94"/><line class="cls-2" x1="332.04" y1="119.87" x2="283.62" y2="134.29"/><line class="cls-2" x1="280.03" y1="142.28" x2="348" y2="172.38"/><line class="cls-2" x1="351.59" y1="164.1" x2="313.48" y2="116.19"/><line class="cls-2" x1="345.83" y1="131.35" x2="293.95" y2="183.94"/><line class="cls-2" x1="339" y1="124.27" x2="325.58" y2="189.6"/><line class="cls-2" x1="351.59" y1="164.1" x2="325.58" y2="189.6"/><line class="cls-2" x1="280.55" y1="166.31" x2="351.59" y2="164.1"/><circle class="cls-1" cx="130.9" cy="320.73" r="37.4"/><line class="cls-2" x1="106.54" y1="292.35" x2="132.34" y2="358.13"/><line class="cls-2" x1="98.92" y1="340.11" x2="161.8" y2="299.66"/><line class="cls-2" x1="154.33" y1="291.57" x2="165.62" y2="334.65"/><line class="cls-2" x1="145.64" y1="286.34" x2="105.84" y2="350.01"/><line class="cls-2" x1="97.06" y1="304.79" x2="161.05" y2="298.59"/><line class="cls-2" x1="120.56" y1="284.78" x2="98.92" y2="340.11"/><line class="cls-2" x1="94.28" y1="313.11" x2="156.86" y2="347.65"/><line class="cls-2" x1="167.63" y1="313.65" x2="106.94" y2="348.24"/><line class="cls-2" x1="127.84" y1="283.33" x2="156.86" y2="347.65"/><line class="cls-2" x1="154.33" y1="291.57" x2="133.71" y2="358.13"/><line class="cls-2" x1="106.94" y1="348.24" x2="156.86" y2="347.65"/><line class="cls-2" x1="95.49" y1="308.68" x2="145.64" y2="286.34"/><path class="cls-3" d="M176,258.26a813.3,813.3,0,0,1,71-67.66A77.07,77.07,0,0,1,240.62,136q-58.87-29.5-123.2-54.63a340,340,0,0,0-87.22,122.1A530.83,530.83,0,0,0,85.65,262.3c13-11,29.43-17.94,47.51-17.94A73.2,73.2,0,0,1,176,258.26Z"/><line class="cls-2" x1="108.66" y1="89.37" x2="202.11" y2="231.42"/><line class="cls-2" x1="117.42" y1="81.32" x2="138.61" y2="244.57"/><line class="cls-2" x1="80.51" y1="119.79" x2="238.26" y2="154.59"/><line class="cls-2" x1="57.47" y1="151.62" x2="98.96" y2="253.17"/><line class="cls-2" x1="30.21" y1="203.42" x2="202.11" y2="231.42"/><line class="cls-2" x1="65.92" y1="139.03" x2="138.61" y2="244.57"/><line class="cls-2" x1="74.72" y1="127.08" x2="228.56" y2="206.67"/><line class="cls-2" x1="108.66" y1="89.37" x2="85.65" y2="262.3"/><line class="cls-2" x1="57.47" y1="151.62" x2="190.45" y2="112.03"/><line class="cls-2" x1="74.72" y1="127.08" x2="155.39" y2="96.71"/><line class="cls-2" x1="80.51" y1="119.79" x2="85.65" y2="262.3"/><line class="cls-2" x1="30.21" y1="203.42" x2="155.39" y2="96.71"/><line class="cls-2" x1="93.5" y1="104.8" x2="183.37" y2="250.39"/><line class="cls-2" x1="155.39" y1="96.71" x2="240.22" y2="196.41"/><line class="cls-2" x1="55.66" y1="232.69" x2="220.68" y2="126.16"/><line class="cls-2" x1="43.72" y1="175.12" x2="116.16" y2="246.44"/><line class="cls-2" x1="68.64" y1="246.03" x2="228.56" y2="206.67"/><line class="cls-2" x1="190.45" y1="112.03" x2="228.56" y2="206.67"/><line class="cls-2" x1="65.92" y1="139.03" x2="213.65" y2="220.35"/><line class="cls-2" x1="153.99" y1="247.42" x2="229.27" y2="130.33"/><line class="cls-2" x1="134.82" y1="88.22" x2="213.65" y2="220.35"/><line class="cls-2" x1="46.88" y1="223.13" x2="239.94" y2="170.49"/><line class="cls-2" x1="206.66" y1="119.5" x2="175.97" y2="258.26"/><path class="cls-3" d="M595.79,160.86a1345.54,1345.54,0,0,1-69,125.9c43.42,39.9,81.1,81.74,112.14,124.75a359.28,359.28,0,0,0,6.72-69.28A352.53,352.53,0,0,0,595.79,160.86Z"/><line class="cls-2" x1="571.3" y1="209.29" x2="640.79" y2="283.33"/><line class="cls-2" x1="621.37" y1="212.99" x2="550.91" y2="246.31"/><line class="cls-2" x1="632.53" y1="246.31" x2="526.81" y2="286.77"/><line class="cls-2" x1="644.02" y1="307.92" x2="562.09" y2="226.35"/><line class="cls-2" x1="621.37" y1="212.99" x2="576.64" y2="336.12"/><line class="cls-2" x1="632.53" y1="246.31" x2="581.92" y2="188.88"/><line class="cls-2" x1="604.79" y1="176.85" x2="574.93" y2="202.4"/><line class="cls-2" x1="618.15" y1="205.08" x2="589.86" y2="170.49"/><line class="cls-2" x1="604.79" y1="176.85" x2="626.69" y2="395.05"/><line class="cls-2" x1="626.29" y1="226.35" x2="571.3" y2="209.29"/><line class="cls-2" x1="640.79" y1="283.33" x2="542.68" y2="301.69"/><line class="cls-2" x1="632.53" y1="246.31" x2="576.64" y2="336.12"/><line class="cls-2" x1="644.02" y1="307.92" x2="550.91" y2="246.31"/><line class="cls-2" x1="621.37" y1="212.99" x2="542.68" y2="301.69"/><line class="cls-2" x1="542.9" y1="260.13" x2="626.69" y2="395.05"/><line class="cls-2" x1="645.32" y1="358.13" x2="591.74" y2="352.71"/><line class="cls-2" x1="643.7" y1="379.91" x2="526.81" y2="286.77"/><line class="cls-2" x1="571.3" y1="209.29" x2="618.15" y2="205.08"/><line class="cls-2" x1="640.79" y1="283.33" x2="604.59" y2="367.57"/><line class="cls-2" x1="566.74" y1="217.82" x2="576.64" y2="336.12"/><line class="cls-2" x1="538.75" y1="267.14" x2="542.68" y2="301.69"/><line class="cls-2" x1="645.67" y1="330.38" x2="576.64" y2="336.12"/><line class="cls-2" x1="550.91" y1="246.31" x2="645.32" y2="358.13"/><line class="cls-2" x1="626.69" y1="395.05" x2="643.7" y2="379.91"/><line class="cls-2" x1="644.02" y1="307.92" x2="591.74" y2="352.71"/><path class="cls-3" d="M378.37,530.75a73.28,73.28,0,0,1-42.2-13.41C277.5,569.26,217,607.92,156.57,632.51c48.79,31.49,105.92,50,167.27,50,114.53,0,214.83-63.46,271.86-158.73a1368,1368,0,0,1-151.18-34.17C431.62,514,407,530.75,378.37,530.75Z"/><line class="cls-2" x1="283.05" y1="679.71" x2="274.44" y2="566.62"/><line class="cls-2" x1="206.03" y1="658.64" x2="229.77" y2="595.85"/><line class="cls-2" x1="191.63" y1="616.67" x2="206.03" y2="658.64"/><line class="cls-2" x1="174.23" y1="643.13" x2="191.63" y2="616.67"/><line class="cls-2" x1="169.02" y1="627.24" x2="174.23" y2="643.13"/><line class="cls-2" x1="209.5" y1="607.39" x2="323.84" y2="682.47"/><line class="cls-2" x1="239.29" y1="670.42" x2="388.51" y2="532.84"/><line class="cls-2" x1="444.88" y1="657.49" x2="388.51" y2="532.84"/><line class="cls-2" x1="403.25" y1="526.3" x2="388.51" y2="675.57"/><line class="cls-2" x1="348.84" y1="524.5" x2="353.1" y2="681.07"/><line class="cls-2" x1="312.19" y1="537.74" x2="323.84" y2="682.47"/><line class="cls-2" x1="433.66" y1="505.26" x2="487.26" y2="635.19"/><line class="cls-2" x1="533.76" y1="511.92" x2="532.47" y2="600.93"/><line class="cls-2" x1="569.7" y1="561.26" x2="513.25" y2="507.34"/><line class="cls-2" x1="584.79" y1="540.8" x2="433.66" y2="505.26"/><line class="cls-2" x1="571.9" y1="519.55" x2="487.26" y2="635.19"/><line class="cls-2" x1="532.47" y1="600.93" x2="453.84" y2="493.18"/><line class="cls-2" x1="487.26" y1="635.19" x2="366.46" y2="529.77"/><line class="cls-2" x1="444.88" y1="657.49" x2="274.44" y2="566.62"/><line class="cls-2" x1="488.22" y1="501.31" x2="444.88" y2="657.49"/><line class="cls-2" x1="470.64" y1="644.93" x2="413.61" y2="521.53"/><line class="cls-2" x1="569.7" y1="561.26" x2="274.44" y2="566.62"/><line class="cls-2" x1="209.5" y1="607.39" x2="388.51" y2="532.84"/><line class="cls-2" x1="297.28" y1="549.62" x2="283.05" y2="679.71"/><line class="cls-2" x1="229.77" y1="595.85" x2="283.05" y2="679.71"/><line class="cls-2" x1="200.71" y1="612.05" x2="239.29" y2="670.42"/><line class="cls-2" x1="174.23" y1="643.13" x2="533.76" y2="511.92"/><line class="cls-2" x1="413.61" y1="521.53" x2="569.7" y2="561.26"/><line class="cls-2" x1="312.19" y1="537.74" x2="388.51" y2="532.84"/><line class="cls-2" x1="326.3" y1="525.93" x2="388.51" y2="675.57"/><line class="cls-2" x1="323.84" y1="682.47" x2="413.61" y2="521.53"/><line class="cls-2" x1="388.51" y1="675.57" x2="488.22" y2="501.31"/><line class="cls-2" x1="353.1" y1="681.07" x2="571.9" y2="519.55"/><line class="cls-2" x1="514.32" y1="616.22" x2="453.84" y2="493.18"/><line class="cls-2" x1="283.05" y1="679.71" x2="388.51" y2="532.84"/><line class="cls-2" x1="353.1" y1="681.07" x2="274.44" y2="566.62"/><line class="cls-2" x1="251.22" y1="582.48" x2="239.29" y2="670.42"/><line class="cls-2" x1="444.88" y1="657.49" x2="239.29" y2="670.42"/><line class="cls-2" x1="532.47" y1="600.93" x2="239.29" y2="670.42"/><line class="cls-2" x1="571.9" y1="519.55" x2="584.79" y2="540.8"/><line class="cls-2" x1="533.76" y1="511.92" x2="554.17" y2="579.4"/><line class="cls-2" x1="413.61" y1="521.53" x2="554.17" y2="579.4"/><line class="cls-2" x1="297.28" y1="549.62" x2="470.64" y2="644.93"/><path class="cls-3" d="M507.31,317.1q-31.64,47.74-66.49,90.34a80.48,80.48,0,0,1,13.31,44.5c0,.94-.25,1.83-.28,2.77a1349.38,1349.38,0,0,0,159.69,35,350.36,350.36,0,0,0,13.14-33.17C595.35,408.47,555.3,361.58,507.31,317.1Z"/><line class="cls-2" x1="493.15" y1="337.96" x2="543.96" y2="353.16"/><line class="cls-2" x1="524.34" y1="333.68" x2="489" y2="464.16"/><line class="cls-2" x1="462.56" y1="379.91" x2="603.06" y2="422.72"/><line class="cls-2" x1="571.9" y1="383.92" x2="559.2" y2="480.02"/><line class="cls-2" x1="613.54" y1="489.66" x2="462.56" y2="379.91"/><line class="cls-2" x1="450.77" y1="395.05" x2="626.69" y2="456.5"/><line class="cls-2" x1="571.9" y1="383.92" x2="489" y2="464.16"/><line class="cls-2" x1="493.15" y1="337.96" x2="452.3" y2="434.79"/><line class="cls-2" x1="524.34" y1="333.68" x2="493.15" y2="337.96"/><line class="cls-2" x1="619.66" y1="475.43" x2="488.29" y2="349.49"/><line class="cls-2" x1="626.69" y1="456.5" x2="453.93" y2="446.11"/><line class="cls-2" x1="615.74" y1="440.27" x2="446.35" y2="417.24"/><line class="cls-2" x1="565.55" y1="379.91" x2="466.55" y2="458.24"/><line class="cls-2" x1="591.74" y1="486.06" x2="500.28" y2="327.59"/><line class="cls-2" x1="472.73" y1="366.42" x2="557.1" y2="367.22"/><line class="cls-2" x1="526.81" y1="473.2" x2="543.96" y2="353.16"/><line class="cls-2" x1="593.1" y1="409.69" x2="559.2" y2="480.02"/><line class="cls-2" x1="609.85" y1="431.97" x2="506.67" y2="467.11"/><line class="cls-2" x1="450.77" y1="395.05" x2="541.47" y2="476.39"/><line class="cls-2" x1="591.74" y1="486.06" x2="626.69" y2="456.5"/><line class="cls-2" x1="563.5" y1="374.31" x2="462.56" y2="379.91"/><line class="cls-2" x1="452.3" y1="434.79" x2="619.66" y2="475.43"/><line class="cls-2" x1="571.9" y1="383.92" x2="440.82" y2="407.44"/><line class="cls-2" x1="593.1" y1="409.69" x2="506.67" y2="467.11"/><path class="cls-3" d="M314,233.42a73.07,73.07,0,0,1-41.54-13A769.71,769.71,0,0,0,201,288.86a77.83,77.83,0,0,1,3.22,60.62,942.5,942.5,0,0,0,112.38,57.07c13.74-20.18,36.21-33.47,61.74-33.47a72.46,72.46,0,0,1,35.22,9.46,1101.49,1101.49,0,0,0,66-90.14,1089.57,1089.57,0,0,0-111.23-83.12C354.56,224.12,335.34,233.42,314,233.42Z"/><line class="cls-2" x1="250.94" y1="239.25" x2="336.52" y2="386.37"/><line class="cls-2" x1="208.13" y1="312.44" x2="470.12" y2="284.42"/><line class="cls-2" x1="409.52" y1="237.54" x2="204.24" y2="349.48"/><line class="cls-2" x1="290.17" y1="229.35" x2="282.88" y2="391.37"/><line class="cls-2" x1="226.56" y1="262.3" x2="388.51" y2="373.86"/><line class="cls-2" x1="314" y1="233.42" x2="256.41" y2="377.11"/><line class="cls-2" x1="380.84" y1="217.59" x2="426.86" y2="365.88"/><line class="cls-2" x1="442.66" y1="262.3" x2="208.53" y2="330.31"/><line class="cls-2" x1="214.44" y1="274.56" x2="426.86" y2="365.88"/><line class="cls-2" x1="354" y1="221.35" x2="442.66" y2="262.3"/><line class="cls-2" x1="250.94" y1="239.25" x2="442.66" y2="262.3"/><line class="cls-2" x1="465.65" y1="313.11" x2="234.01" y2="255.04"/><line class="cls-2" x1="207.31" y1="307.63" x2="282.86" y2="226.35"/><line class="cls-2" x1="226.56" y1="262.3" x2="322.54" y2="398.92"/><line class="cls-2" x1="208.9" y1="323.18" x2="322.54" y2="398.92"/><line class="cls-2" x1="354.59" y1="377.11" x2="323.84" y2="232.72"/><line class="cls-2" x1="340.3" y1="228.42" x2="440.82" y2="347.62"/><line class="cls-2" x1="454.03" y1="271.27" x2="449.54" y2="335.82"/><line class="cls-2" x1="472.73" y1="305.27" x2="340.3" y2="228.42"/><line class="cls-2" x1="368.35" y1="209.29" x2="388.51" y2="373.86"/><line class="cls-2" x1="449.54" y1="335.82" x2="234.01" y2="255.04"/><line class="cls-2" x1="336.52" y1="386.37" x2="442.66" y2="262.3"/><line class="cls-2" x1="426.86" y1="365.88" x2="388.51" y2="373.86"/><line class="cls-2" x1="455.1" y1="325.85" x2="240.29" y2="369.87"/><line class="cls-2" x1="231.09" y1="364.86" x2="442.66" y2="262.3"/><line class="cls-2" x1="371.79" y1="373.41" x2="340.3" y2="228.42"/><path class="cls-3" d="M386,177.9A1133.59,1133.59,0,0,1,498.86,262a1319,1319,0,0,0,73-136.54,332.23,332.23,0,0,0-58.82-58A1284.65,1284.65,0,0,0,387.6,136.62a82.2,82.2,0,0,1,2.16,18A81,81,0,0,1,386,177.9Z"/><line class="cls-2" x1="440.53" y1="105.21" x2="521.52" y2="223.66"/><line class="cls-2" x1="495.75" y1="75.99" x2="455.28" y2="226.93"/><line class="cls-2" x1="415.45" y1="119.64" x2="538.75" y2="192.28"/><line class="cls-2" x1="543.53" y1="93.89" x2="421" y2="201.75"/><line class="cls-2" x1="513.09" y1="67.48" x2="485.38" y2="250.77"/><line class="cls-2" x1="529.93" y1="81.32" x2="389.45" y2="160.86"/><line class="cls-2" x1="543.53" y1="93.89" x2="485.38" y2="250.77"/><line class="cls-2" x1="529.93" y1="81.32" x2="455.28" y2="226.93"/><line class="cls-2" x1="543.53" y1="93.89" x2="389.59" y2="145.29"/><line class="cls-2" x1="495.75" y1="75.99" x2="477.1" y2="244.03"/><line class="cls-2" x1="513.09" y1="67.48" x2="410.46" y2="194.38"/><line class="cls-2" x1="446.02" y1="219.93" x2="513.09" y2="67.48"/><line class="cls-2" x1="529.93" y1="81.32" x2="405.05" y2="125.86"/><line class="cls-2" x1="543.53" y1="93.89" x2="464.37" y2="92.18"/><line class="cls-2" x1="545.23" y1="179.94" x2="543.53" y2="93.89"/><line class="cls-2" x1="558.86" y1="152.89" x2="543.53" y2="93.89"/><line class="cls-2" x1="567.28" y1="135.38" x2="557.2" y2="108.08"/><line class="cls-2" x1="564.26" y1="116.12" x2="399.02" y2="186.57"/><line class="cls-2" x1="456.46" y1="96.43" x2="545.23" y2="179.94"/><line class="cls-2" x1="508.37" y1="246.31" x2="456.46" y2="96.43"/><line class="cls-2" x1="388.29" y1="168.73" x2="538.75" y2="192.28"/><line class="cls-2" x1="521.52" y1="223.66" x2="399.02" y2="186.57"/><line class="cls-2" x1="415.45" y1="119.64" x2="399.02" y2="186.57"/><line class="cls-2" x1="558.86" y1="152.89" x2="421" y2="201.75"/><line class="cls-2" x1="521.52" y1="223.66" x2="485.38" y2="250.77"/><line class="cls-2" x1="415.45" y1="119.64" x2="437.84" y2="217.59"/><path id="_Path_" data-name="&lt;Path&gt;" class="cls-3" d="M314,75.75c22.17,0,42,10.14,55.82,26,33.38-20.86,68.56-40.82,105.77-59.51A306.65,306.65,0,0,0,323.84,2C260.31,2,201.26,21.72,151.38,55.3c36.5,14.87,71.56,31.08,105.43,48.18C270.7,86.66,291.06,75.75,314,75.75Z"/><line class="cls-2" x1="209.5" y1="24.33" x2="211.08" y2="81.32"/><line class="cls-2" x1="268.41" y1="92.05" x2="209.5" y2="24.33"/><line class="cls-2" x1="188.1" y1="70.91" x2="209.5" y2="24.33"/><line class="cls-2" x1="171.27" y1="63.59" x2="209.5" y2="24.33"/><line class="cls-2" x1="287.91" y1="80.7" x2="209.5" y2="24.33"/><line class="cls-2" x1="317.94" y1="75.87" x2="209.5" y2="24.33"/><line class="cls-2" x1="259.26" y1="8.94" x2="234.4" y2="92.39"/><line class="cls-2" x1="268.41" y1="92.05" x2="259.26" y2="8.94"/><line class="cls-2" x1="211.08" y1="81.32" x2="259.26" y2="8.94"/><line class="cls-2" x1="196.17" y1="74.51" x2="259.26" y2="8.94"/><line class="cls-2" x1="297.28" y1="77.74" x2="259.26" y2="8.94"/><line class="cls-2" x1="323.84" y1="76.44" x2="259.26" y2="8.94"/><line class="cls-2" x1="242.84" y1="11.51" x2="243.63" y2="96.9"/><line class="cls-2" x1="224.47" y1="18.71" x2="383.95" y2="93.04"/><line class="cls-2" x1="304.21" y1="2.63" x2="287.91" y2="80.7"/><line class="cls-2" x1="314" y1="75.75" x2="304.21" y2="2.63"/><line class="cls-2" x1="219.61" y1="85.31" x2="304.21" y2="2.63"/><line class="cls-2" x1="171.69" y1="42.69" x2="188.1" y2="70.91"/><line class="cls-2" x1="287.91" y1="80.7" x2="171.69" y2="42.69"/><line class="cls-2" x1="278.3" y1="5.42" x2="297.28" y2="77.74"/><line class="cls-2" x1="291.55" y1="3.71" x2="243.63" y2="96.9"/><line class="cls-2" x1="304.21" y1="2.63" x2="332.53" y2="78.2"/><line class="cls-2" x1="328.84" y1="2" x2="268.41" y2="92.05"/><line class="cls-2" x1="314.01" y1="2.16" x2="420.55" y2="71.58"/><line class="cls-2" x1="353.1" y1="2" x2="323.84" y2="76.44"/><line class="cls-2" x1="328.84" y1="2" x2="341.67" y2="81.32"/><line class="cls-2" x1="396.61" y1="10.78" x2="219.61" y2="85.31"/><line class="cls-2" x1="342.84" y1="2" x2="341.67" y2="81.32"/><line class="cls-2" x1="353.1" y1="2" x2="369.82" y2="101.74"/><line class="cls-2" x1="372.13" y1="5.82" x2="398.52" y2="84.3"/><line class="cls-2" x1="396.61" y1="10.78" x2="383.95" y2="93.04"/><line class="cls-2" x1="358.74" y1="91.3" x2="396.61" y2="10.78"/><line class="cls-2" x1="372.13" y1="5.82" x2="349.65" y2="85.24"/><line class="cls-2" x1="429.36" y1="20.79" x2="420.55" y2="71.58"/><line class="cls-2" x1="453.03" y1="30.62" x2="341.67" y2="81.32"/><line class="cls-2" x1="396.61" y1="10.78" x2="441.31" y2="60.1"/><line class="cls-2" x1="429.36" y1="20.79" x2="358.74" y2="91.3"/><line class="cls-2" x1="453.03" y1="30.62" x2="452.55" y2="54.1"/><line class="cls-2" x1="429.36" y1="20.79" x2="446.17" y2="56.04"/><path class="cls-3" d="M57.39,323.18A80.8,80.8,0,0,1,64.14,291a597.45,597.45,0,0,1-48-48.72A358.38,358.38,0,0,0,2,342.24a353.9,353.9,0,0,0,40.51,165.1c6.81-41.11,21.38-82.48,42.93-123.44A79.57,79.57,0,0,1,57.39,323.18Z"/><line class="cls-2" x1="2.26" y1="328.48" x2="59.68" y2="304.31"/><line class="cls-2" x1="4.63" y1="298.76" x2="62.52" y2="351.37"/><line class="cls-2" x1="7.59" y1="278.96" x2="40.72" y2="268.62"/><line class="cls-2" x1="12.01" y1="257.92" x2="59.68" y2="304.31"/><line class="cls-2" x1="7.59" y1="278.96" x2="60.35" y2="440.24"/><line class="cls-2" x1="2.26" y1="328.48" x2="40.72" y2="268.62"/><line class="cls-2" x1="12.01" y1="257.92" x2="25.91" y2="253.15"/><line class="cls-2" x1="7.59" y1="278.96" x2="59.68" y2="304.31"/><line class="cls-2" x1="2.26" y1="328.48" x2="76.38" y2="374.82"/><line class="cls-2" x1="7.14" y1="402.91" x2="40.72" y2="268.62"/><line class="cls-2" x1="2" y1="346.76" x2="57.52" y2="327.55"/><line class="cls-2" x1="2.29" y1="356.77" x2="59.68" y2="304.31"/><line class="cls-2" x1="2" y1="346.76" x2="72.51" y2="410.39"/><line class="cls-2" x1="7.14" y1="402.91" x2="76.38" y2="374.82"/><line class="cls-2" x1="62.52" y1="351.37" x2="7.14" y2="402.91"/><line class="cls-2" x1="72.51" y1="410.39" x2="7.14" y2="402.91"/><line class="cls-2" x1="3.97" y1="379.91" x2="57.52" y2="327.55"/><line class="cls-2" x1="76.38" y1="374.82" x2="24.58" y2="467.35"/><line class="cls-2" x1="13.68" y1="433.1" x2="49.55" y2="474.63"/><line class="cls-2" x1="33.58" y1="489.08" x2="62.52" y2="351.37"/><line class="cls-2" x1="13.68" y1="433.1" x2="76.38" y2="374.82"/><line class="cls-2" x1="10.11" y1="418.2" x2="85.44" y2="383.9"/><line class="cls-2" x1="46.72" y1="486.09" x2="33.58" y2="489.08"/><line class="cls-2" x1="54.93" y1="456.12" x2="2" y2="346.76"/><line class="cls-2" x1="19.08" y1="451.59" x2="72.51" y2="410.39"/><line class="cls-2" x1="10.11" y1="418.2" x2="60.35" y2="440.24"/><line class="cls-2" x1="55.84" y1="283.33" x2="2" y2="346.76"/><path class="cls-3" d="M303.79,439.78a989.83,989.83,0,0,1-118.28-59.86A73.89,73.89,0,0,1,133.15,402a71.84,71.84,0,0,1-12.3-1.3c-28.78,54-43.43,107.43-43.79,159.78a333.29,333.29,0,0,0,44.14,45.94c63.83-22.14,128.31-61.4,191-116.94a80.24,80.24,0,0,1-9.57-37.57A81.12,81.12,0,0,1,303.79,439.78Z"/><line class="cls-2" x1="108" y1="426.89" x2="194.63" y2="573.56"/><line class="cls-2" x1="84.72" y1="495.55" x2="261.45" y2="530.65"/><line class="cls-2" x1="156.57" y1="398.11" x2="157.86" y2="591.89"/><line class="cls-2" x1="78.08" y1="538.17" x2="304.5" y2="458.17"/><line class="cls-2" x1="207.53" y1="392.64" x2="117.01" y2="602.78"/><line class="cls-2" x1="92.5" y1="467.11" x2="278.75" y2="429.22"/><line class="cls-2" x1="156.57" y1="398.11" x2="261.45" y2="530.65"/><line class="cls-2" x1="207.53" y1="392.64" x2="261.45" y2="530.65"/><line class="cls-2" x1="278.75" y1="429.22" x2="299" y2="500.23"/><line class="cls-2" x1="92.5" y1="467.11" x2="299" y2="500.23"/><line class="cls-2" x1="108" y1="426.89" x2="156.57" y2="398.11"/><line class="cls-2" x1="207.53" y1="392.64" x2="78.08" y2="538.17"/><line class="cls-2" x1="89.6" y1="575.42" x2="108" y2="426.89"/><line class="cls-2" x1="98.8" y1="584.17" x2="265.72" y2="422.62"/><line class="cls-2" x1="89.6" y1="575.42" x2="242.39" y2="544.17"/><line class="cls-2" x1="117.01" y1="602.78" x2="120.86" y2="400.73"/><line class="cls-2" x1="89.6" y1="575.42" x2="207.53" y2="392.64"/><line class="cls-2" x1="77.06" y1="560.51" x2="258.45" y2="532.85"/><line class="cls-2" x1="195.75" y1="384.17" x2="78.34" y2="535.29"/><line class="cls-2" x1="137.05" y1="401.92" x2="304.5" y2="458.17"/><line class="cls-2" x1="92.5" y1="467.11" x2="157.86" y2="591.89"/><line class="cls-2" x1="121.21" y1="606.46" x2="303.79" y2="439.78"/><line class="cls-2" x1="194.63" y1="573.56" x2="236.84" y2="410.51"/><line class="cls-2" x1="173.08" y1="390" x2="281.08" y2="515.64"/><line class="cls-2" x1="236.84" y1="410.51" x2="281.08" y2="515.64"/><line class="cls-2" x1="84.72" y1="495.55" x2="236.84" y2="410.51"/><line class="cls-2" x1="108" y1="426.89" x2="304.5" y2="458.17"/><line class="cls-2" x1="218.3" y1="559.79" x2="236.84" y2="410.51"/><line class="cls-2" x1="177.67" y1="582.48" x2="120.86" y2="400.73"/><line class="cls-2" x1="307.53" y1="479.05" x2="77.06" y2="560.51"/><line class="cls-2" x1="281.08" y1="515.64" x2="84.72" y2="495.55"/></g></g></svg>